<svg xmlns="http://www.w3.org/2000/svg" width="1024" height="1024" style="shape-rendering:geometricPrecision;text-rendering:geometricPrecision;image-rendering:optimizeQuality;fill-rule:evenodd;clip-rule:evenodd" viewBox="100 105 825 825"><path d="M512 270q-9 0-17 6-20 19-36 42l-59 93-64 112-15 27q-2 0-2 2l-19 36-3 5-5 3q-71 26-135 66l-39 25-12 13q-4 9 5 15l14 8a365 365 0 0 0 61 17q1-1 3 1l84 12 42 4 44 4h37-1a2416 2416 0 0 0 238 0l19 1 65-5h2l90-12q38-6 75-17 20-4 34-18 2-12-7-18l-4-3a275 275 0 0 0-42-28l-31-18q-3-3-6-3-14-9-29-15l-8-4-56-24q-8-3-11-9l-10-19q3-4 8-5l14-6q35-19 62-49l-20-6 29-9q13-10 24-23l31-47 1-2-11-3-15-2 30-13 7-4 27-64 1-7 14-57-24 3v1l-22 3q-32 7-60 21l-28 15q-8 4-14 11l-11 25v-7l-4-10-3 2-28 27a163 163 0 0 0-27 40l-3 23-4-9-1-3q-2-2-3 0a247 247 0 0 0-24 58l-1-1-21-37-53-86-18-26a345 345 0 0 0-34-42q-10-10-21-10m3 18q12 8 20 21l22 30c11 16 48 73 55 88l39 64 4 12-1 41q0 6 3 12-2 6 0 12v1l-45-10-10-1q-70-12-141-6a562 562 0 0 0-105 20l-5 1q-14 3-26 9l-1-1 23-42 18-33v-1l19-33v-2l39-62 44-70 26-35 5-4q5-10 17-11m377 5 2 2-1 4-5 19-6 15-4 15-17 39-4 2-16 9-11 5-15 9-7 3-10 5-5 2q-2 1 0 2l43 6h2a374 374 0 0 1-33 45h-2l-12 6-40 14q-11 5-23 8-1 1 1 2l32 7 6 2q-2 1-1 3l-8 5-8 7-9 5-31 17-23 8-1-1 5-10 18-32h1l26-44 10-13 21-29 20-26 3-3 2-3q0-2 2-2l21-25 13-14 4-6-2-1-2 1-14 11-3 3q-6 4-10 10a306 306 0 0 0-36 36l-24 28-7 11-1 1-13 17-22 36-20 33-2 5-4 7a224 224 0 0 1 0-47l4-25 11-30 7 13v2l2 6 5 10 1-3v-8l8-51v-5a116 116 0 0 1 18-26q7-12 18-21l2 1 2 14v1l6 20q2 0 2-2l7-23 7-19 6-14v-1q0-3 3-5l9-6h1a190 190 0 0 1 37-18q4-3 10-3l17-6q8-4 19-5zM508 567q30 0 60 3l73 12 41 12 22 7 5 3 12 5a886 886 0 0 1 119 57l29 18q-41-9-80-20l-83-15h-4l-28-5-66-6h-1a893 893 0 0 0-147-3l-35 1-85 9-82 14-103 24 17-10 15-8 29-16 78-37 8-3 28-11 3-2h2q85-29 173-29" style="opacity:1;fill:#0a2b18;fill-opacity:1"/><path d="M515 288q-12 1-17 11-18 17-31 39l-44 70-39 64-19 33v1l-18 33-23 42 1 1c6-3 25-9 31-10a562 562 0 0 1 105-20q71-6 141 6l10 1q3 0 5-2l-23-77-43-129-16-42q-8-13-20-21" style="opacity:1;fill:#3e763c;fill-opacity:1"/><path d="m892 293-18 5q-11 1-19 5l-17 6q-6 0-10 3a190 190 0 0 0-37 18h-1l-9 6q-3 2-3 5v1l-6 14-7 19-7 23q0 2-2 2l-6-20v-1l-2-14-2-1q-11 9-18 21a116 116 0 0 0-18 26v5l-8 51v8l-1 3-5-10-2-6v-2l-7-13-11 30-4 25a224 224 0 0 0 0 47l4-7 2-5 20-33 22-36 13-17 1-1 7-11 24-28a306 306 0 0 1 36-36q4-6 10-10l3-3 14-11q2-2 4 0l-4 6-13 14-21 25q-2 0-2 2l-2 3-3 3-20 26-21 29-10 13-26 44h-1l-18 32-5 10 1 1 23-8 31-17 9-5 8-7 8-5q-1-2 1-3l-6-2-32-7q-2-1-1-2 12-3 23-8l40-14 12-6h2a374 374 0 0 0 33-45h-2l-43-6q-2-1 0-2l5-2 10-5 7-3 15-9 11-5 16-9 4-2 17-39 4-15 6-15 5-19 1-4zM761 517l-2 1z" style="opacity:1;fill:#c9a921;fill-opacity:1"/><path d="m535 309 16 42 43 129 23 77q-2 2-5 2l45 10v-1q-2-6 0-12-3-6-3-12l1-41-4-12-39-64-19-34-36-54z" style="opacity:1;fill:#1a5f32;fill-opacity:1"/><path d="M508 567q-88 0-173 29h-2l-3 2-28 11-8 3-78 37-29 16-15 8c-3 0-4 2-17 10l103-24 82-14 85-9 35-1a893 893 0 0 1 147 3h1l66 6h3l2-2 1 1 6-2q-10-7-15-17l-1-1a177 177 0 0 1-29-41l-73-12q-30-3-60-3" style="opacity:1;fill:#508943;fill-opacity:1"/><path d="M641 582a177 177 0 0 0 29 41l1 1q5 10 15 17l-6 2-1-1-2 2h-3l28 5 72 13c53 14 44 12 97 23l-32-20a886 886 0 0 0-118-56l-12-5-5-3-22-7zm44 15" style="opacity:1;fill:#377237;fill-opacity:1"/></svg>
