<svg xmlns="http://www.w3.org/2000/svg" width="1024" height="1024" viewBox="100 260 800 510" style="shape-rendering:geometricPrecision;text-rendering:geometricPrecision;image-rendering:optimizeQuality;fill-rule:evenodd;clip-rule:evenodd"><path d="M511.814 269.697q-8.388.104-17.314 6.303-19.998 18.985-35.5 41.5a1705 1705 0 0 0-59.5 93 2178 2178 0 0 0-63.748 112.164q-.125.17-.252.336l.006.094v.002A2176 2176 0 0 0 320.5 549.5q-1.5.5-2 2l-19 36q-1.838 2.156-3 5-2.79 1.238-5 3-70.725 26.723-135 66a497 497 0 0 0-39 25.5 91.7 91.7 0 0 0-11.5 12.5q-3.708 9.368 4.5 15.5l14 8a365 365 0 0 0 61 16.5q1.936-.356 3 1a1807 1807 0 0 0 84 12 445 445 0 0 0 42 4 770 770 0 0 0 44 4q12.74.11 25.483.088A227 227 0 0 0 395.5 761a3.7 3.7 0 0 1-.574-.375 2416 2416 0 0 0 237.728.81c.117.018.229.049.346.065.13-.012.267-.046.399-.063h.004a2415 2415 0 0 0 18.097.063q32.505-2.423 65-5h2a1900 1900 0 0 0 90-11.5q38.376-5.883 75-17.5 20.14-3.564 34-18 2.279-11.229-7-18l-4-3a275 275 0 0 0-42-28 237 237 0 0 0-31-18q-2.521-2.262-6-3-13.734-8.62-29-15-3.522-2.76-8-4a521 521 0 0 0-56-24q-7.553-2.022-11-9a258 258 0 0 0-10-19q3.588-3.287 8-5l14-6q35.09-18.822 62-48.5a246 246 0 0 1-20-6.5 986 986 0 0 0 29-9q13.88-9.627 24.5-23a440 440 0 0 0 30.5-47q.457-.975 1-2a45 45 0 0 0-11-3 341 341 0 0 1-15-1.5l30-13a19.35 19.35 0 0 0 7-4.5 644 644 0 0 0 27-64 52 52 0 0 1 1-7 439 439 0 0 0 14-57q-12.015 1.506-24 3v1a252 252 0 0 0-22 3.5q-31.113 7.453-60 20.5a179 179 0 0 0-28 15q-7.809 4.045-13.5 11a816 816 0 0 0-11 25 25 25 0 0 1-.5-7q-1.27-4.974-3.5-10-1.223 1.985-3.5 2a1041 1041 0 0 0-27.5 27 162.6 162.6 0 0 0-27 40 676 676 0 0 1-3.5 23 54 54 0 0 1-4-9 5.73 5.73 0 0 1-1-3q-1.344-1.647-2.5 0a246.6 246.6 0 0 0-24.5 58q-.91-.186-1-1a1016 1016 0 0 0-21-37q-26.49-42.992-53-86-8.979-12.944-18-26a344.6 344.6 0 0 0-34-42q-9.9-9.938-20.685-9.803zM514.5 288q12.317 8.065 20 20.5a1065 1065 0 0 1 22.5 30c10.994 16.893 47.741 73.65 54.5 88l39 64a44.6 44.6 0 0 1 4 12 302 302 0 0 0-.5 41q.025 6.59 2.5 12.5-1.526 5.66 0 11.5v1a686 686 0 0 0-45-10l-10-1q-69.909-11.859-141-6a562 562 0 0 0-105 20 20.7 20.7 0 0 0-5 1c-8.8 2.6-17.476 5.604-26 9q-.91-.186-1-1a637 637 0 0 1 23-42 793 793 0 0 1 18-33v-1a514 514 0 0 0 19-33 5 5 0 0 0 .691-1.133v-.002l.002-.002L422.5 407.5a1872 1872 0 0 1 44-70l26-35 5-4q5.69-9.963 17-10.5m377 4.5q1.63.18 2 2a344 344 0 0 0-1 4 325 325 0 0 0-5 19 271 271 0 0 1-6 15 95.5 95.5 0 0 1-4 15 980 980 0 0 1-17 39q-1.657 1.65-4 2a186 186 0 0 1-16 9.5 39.2 39.2 0 0 1-11 4.5 169 169 0 0 1-15 9 18.7 18.7 0 0 0-7 3 941 941 0 0 1-10 5l-5 2.5q-1.857 1.035 0 1.5a356 356 0 0 0 43 6 2.43 2.43 0 0 1 2 .5 374 374 0 0 1-33 44.5h-2q-5.257 4.205-12 6.5-20.012 6.75-40 13.5-10.916 5.185-23 8-.258 1.488 1 2l32 7a69 69 0 0 1 6 2.5q-1.128 1.005-1 2.5a1105 1105 0 0 0-8 5l-8 7a59.6 59.6 0 0 0-9 5 695 695 0 0 1-31 17 181 181 0 0 0-22.5 8l-1.5-.5a50.5 50.5 0 0 0 5-10.5l18-32h1a724 724 0 0 1 26-44l10-13a235.4 235.4 0 0 1 21-29 370 370 0 0 1 20-26 10.2 10.2 0 0 1 3-3l2-3q.5-1.5 2-2a589 589 0 0 0 21-25l13-14q2.55-2.565 4-6-.9-.594-1.9-.594t-2.1.594a3528 3528 0 0 1-14 11 6.55 6.55 0 0 1-3 3q-5.5 4.5-10 10a306 306 0 0 0-36 36 477 477 0 0 1-24 28 94 94 0 0 1-7 11q-1 0-1 1a253 253 0 0 0-13 17 497 497 0 0 0-22 36 809 809 0 0 0-20 33 16.3 16.3 0 0 0-2 5l-3.5 7a224 224 0 0 1-.5-47 665 665 0 0 1 4-25 277 277 0 0 1 11.5-30l6.5 13v2a31.7 31.7 0 0 1 2 6 74.5 74.5 0 0 0 5.5 10 4.93 4.93 0 0 0 .5-3v-8a1165 1165 0 0 0 8-51v-5a116 116 0 0 1 18-26q7.787-11.553 18.5-21 .575.834 1.5 1a52.5 52.5 0 0 0 2 14v1a219 219 0 0 1 6 20q2 0 2-2a451 451 0 0 0 7-23q4.35-9.04 7-19a173 173 0 0 1 6-14v-1q.54-2.805 3-4.5 5.13-2.548 9-6.5h1a190 190 0 0 1 37-18q4.624-2.287 10-3a66.6 66.6 0 0 0 17-6q8.988-3.807 19-5a108.6 108.6 0 0 1 18-5M508.158 566.893q29.49-.027 59.342 3.107a821 821 0 0 1 73 11.5 268.5 268.5 0 0 1 41 12l22 7a27.2 27.2 0 0 1 5 3 66.7 66.7 0 0 1 12 5 886 886 0 0 1 119 57 644 644 0 0 1 29 18c-27.026-4.34-53.298-13.223-79.777-19.145-.492-.786-40.681-7.61-82.223-15.855h-5a812 812 0 0 0-28-5 1323 1323 0 0 0-66-6h-1a893 893 0 0 0-147-3q-17.51.25-35 1a7471 7471 0 0 0-85 9.5 2709 2709 0 0 0-82 13.5 5763 5763 0 0 0-103 24.5c5.505-3.232 16.506-10.246 17-10.5a162 162 0 0 1 15-8 203.5 203.5 0 0 1 29-16 1041 1041 0 0 1 78-37 20.5 20.5 0 0 0 8-3 252 252 0 0 1 28-11l3-2h2q85.192-28.527 173.658-28.607" style="opacity:1;fill:#0a2b18;fill-opacity:1"/><path d="M514.5 288q-11.31.537-17 10.5c-12.357 10.889-21.181 25.763-31 39a1872 1872 0 0 0-44 70l-39 64a514 514 0 0 1-19 33v1a793 793 0 0 0-18 33 637 637 0 0 0-23 42q.09.814 1 1c6.502-2.59 25.849-8.548 31-10a562 562 0 0 1 105-20q71.091-5.859 141 6l10 1q3.422.634 5-2a1637 1637 0 0 0-22.5-77l-43.5-129a527 527 0 0 1-16-42q-7.683-12.435-20-20.5" style="opacity:1;fill:#3e763c;fill-opacity:1"/><path d="M891.5 292.5a108.6 108.6 0 0 0-18 5q-10.012 1.193-19 5a66.6 66.6 0 0 1-17 6q-5.376.713-10 3a190 190 0 0 0-37 18h-1q-3.87 3.952-9 6.5-2.46 1.695-3 4.5v1a173 173 0 0 0-6 14q-2.65 9.96-7 19a451 451 0 0 1-7 23q0 2-2 2a219 219 0 0 0-6-20v-1a52.5 52.5 0 0 1-2-14q-.925-.166-1.5-1-10.713 9.447-18.5 21a115.9 115.9 0 0 0-18 26v5q-3.468 25.8-8 51v8a4.93 4.93 0 0 1-.5 3 74.5 74.5 0 0 1-5.5-10 31.7 31.7 0 0 0-2-6v-2l-6.5-13a277 277 0 0 0-11.5 30 665 665 0 0 0-4 25 224 224 0 0 0 .5 47l3.5-7a16.3 16.3 0 0 1 2-5 809 809 0 0 1 20-33 497 497 0 0 1 22-36 253 253 0 0 1 13-17q0-1 1-1a94 94 0 0 0 7-11 477 477 0 0 0 24-28 306 306 0 0 1 36-36q4.5-5.5 10-10a6.55 6.55 0 0 0 3-3 3421 3421 0 0 0 14-11q2.2-1.188 4 0-1.45 3.435-4 6l-13 14a589 589 0 0 1-21 25q-1.5.5-2 2l-2 3a10.2 10.2 0 0 0-3 3 370 370 0 0 0-20 26 235.4 235.4 0 0 0-21 29l-10 13a724 724 0 0 0-26 44h-1a54991 54991 0 0 1-18 32 50.5 50.5 0 0 1-5 10.5l1.5.5a181 181 0 0 1 22.5-8 695 695 0 0 0 31-17 59.6 59.6 0 0 1 9-5l8-7q4.025-2.54 8-5-.128-1.495 1-2.5a69 69 0 0 0-6-2.5l-32-7q-1.258-.512-1-2 12.084-2.815 23-8 19.988-6.75 40-13.5 6.743-2.295 12-6.5h2a374 374 0 0 0 33-44.5 2.43 2.43 0 0 0-2-.5 356 356 0 0 1-43-6q-1.857-.465 0-1.5l5-2.5a941 941 0 0 0 10-5 18.7 18.7 0 0 1 7-3 169 169 0 0 0 15-9 39.2 39.2 0 0 0 11-4.5 186 186 0 0 0 16-9.5q2.343-.35 4-2a980 980 0 0 0 17-39 95.5 95.5 0 0 0 4-15 271 271 0 0 0 6-15 325 325 0 0 1 5-19 344 344 0 0 1 1-4q-.37-1.82-2-2m-131 224a15.5 15.5 0 0 0-1.45 1.879 15 15 0 0 1 1.45-1.879" style="opacity:1;fill:#c9a921;fill-opacity:1"/><path d="M534.5 308.5a527 527 0 0 0 16 42l43.5 129a1637 1637 0 0 1 22.5 77q-1.578 2.634-5 2a686 686 0 0 1 45 10v-1q-1.526-5.84 0-11.5-2.475-5.91-2.5-12.5a302 302 0 0 1 .5-41 44.6 44.6 0 0 0-4-12l-39-64c-2.734-5.804-15.486-27.872-18.749-33.396C577.617 370.124 572.22 361.94 557 338.5a1065 1065 0 0 0-22.5-30" style="opacity:1;fill:#1a5f32;fill-opacity:1"/><path d="M508.158 566.893q-88.465.079-173.658 28.607h-2l-3 2a252 252 0 0 0-28 11 20.5 20.5 0 0 1-8 3 1041 1041 0 0 0-78 37 203.5 203.5 0 0 0-29 16 162 162 0 0 0-15 8c-2.021.875-3.322 2.47-17 10.5a5763 5763 0 0 1 103-24.5 2709 2709 0 0 1 82-13.5 7471 7471 0 0 1 85-9.5q17.49-.75 35-1a893 893 0 0 1 147 3h1a1323 1323 0 0 1 66 6h3q1.438-.68 2.5-2 .598.342.5 1a10.1 10.1 0 0 0 6-1.5q-9.09-7.465-15-17.5-1 0-1-1a177.2 177.2 0 0 1-29-41 821 821 0 0 0-73-11.5q-29.853-3.135-59.342-3.107" style="opacity:1;fill:#508943;fill-opacity:1"/><path d="M640.5 581.5a177.2 177.2 0 0 0 29 41q0 1 1 1 5.91 10.035 15 17.5a10.1 10.1 0 0 1-6 1.5q.098-.658-.5-1-1.062 1.32-2.5 2h-3a812 812 0 0 1 28 5l72.775 13.005c53.176 14.683 43.793 12.073 97.004 23.583-9.506-6.255-21.955-13.845-31.779-19.588a886 886 0 0 0-119-57 66.7 66.7 0 0 0-12-5 27.2 27.2 0 0 0-5-3l-22-7a268.5 268.5 0 0 0-41-12m44 15.5" style="opacity:1;fill:#377237;fill-opacity:1"/></svg>